<svg width="1142" height="320" viewBox="0 0 1142 320" fill="none" xmlns="http://www.w3.org/2000/svg">
<g clip-path="url(#clip0_2002_2)">
<path d="M0 11.8427H148.975C202.264 11.8427 228.721 54.5996 228.721 96.9259C228.721 129.516 213.111 162.107 181.545 175.657L253.83 308.142H149.305L91.6119 182.009H83.1323V308.142H0V11.8427ZM83.1466 161.261H125.229C138.803 160.831 145.589 144.328 145.589 128.24C145.589 112.152 138.803 96.4952 124.555 96.4952H83.1466V161.261Z" fill="#35271C"/>
<path d="M260.976 11.8427H344.122V308.142H260.976V11.8427Z" fill="#35271C"/>
<path d="M559.959 0C605.772 0 627.84 18.1948 627.84 45.2946C627.84 80.8536 589.157 131.639 515.509 172.273C538.925 151.541 548.093 131.208 548.093 117.243C548.093 105.816 541.637 98.6177 531.808 98.6177C488.033 98.6177 456.137 147.711 456.137 183.701C456.137 204.433 466.654 220.952 492.108 220.952C531.808 220.952 576.273 176.088 591.539 160L595.614 251.42C556.243 291.639 509.756 319.985 455.793 319.985C407.598 319.985 364.166 285.702 364.166 220.521C364.166 202.742 367.567 182.424 374.684 159.985C408.272 55.8762 498.88 0 559.959 0Z" fill="#35271C"/>
<path d="M800.92 0C846.733 0 868.786 18.1948 868.786 45.2946C868.786 80.8536 830.103 131.639 756.455 172.273C779.871 151.541 789.039 131.208 789.039 117.243C789.039 105.816 782.597 98.6177 772.754 98.6177C728.979 98.6177 697.083 147.711 697.083 183.701C697.083 204.433 707.6 220.952 733.053 220.952C772.754 220.952 817.219 176.088 832.485 160L836.56 251.42C797.189 291.639 750.702 319.985 696.739 319.985C648.544 319.985 605.112 285.702 605.112 220.521C605.112 202.742 608.513 182.424 615.629 159.985C649.232 55.8762 739.84 0 800.92 0Z" fill="#35271C"/>
<path d="M1004.55 320C941.429 320 867.107 267.507 867.107 160C867.107 52.4925 941.429 0 1004.55 0C1067.66 0 1141.99 52.4772 1141.99 160C1141.99 267.523 1068.01 320 1004.55 320ZM1004.55 99.0484C980.456 99.0484 952.621 118.95 952.621 160C952.621 201.05 980.456 220.952 1004.55 220.952C1028.64 220.952 1056.82 201.05 1056.82 160C1056.82 118.95 1028.65 99.0484 1004.55 99.0484Z" fill="#35271C"/>
</g>
<defs>
<clipPath id="clip0_2002_2">
<rect width="1142" height="320" fill="white"/>
</clipPath>
</defs>
</svg>
